<mxfile host="app.diagrams.net" modified="2023-03-27T09:58:06.317Z" agent="Mozilla/5.0 (X11; Linux x86_64; rv:109.0) Gecko/20100101 Firefox/113.0" etag="k_FyC4hLXCeey9pg1pO8" version="21.1.1" type="device">
  <diagram name="Page-1" id="i2mqyHP1Hj3E1FknP1Xp">
    <mxGraphModel dx="10417" dy="9800" grid="1" gridSize="10" guides="1" tooltips="1" connect="1" arrows="1" fold="1" page="1" pageScale="1" pageWidth="4681" pageHeight="3300" math="0" shadow="0">
      <root>
        <mxCell id="0" />
        <mxCell id="1" parent="0" />
        <mxCell id="UBPbaVSDeuR6Y1h6aldy-20" value="" style="group;aspect=fixed;" parent="1" vertex="1" connectable="0">
          <mxGeometry x="140" y="80" width="1018.18" height="1050" as="geometry" />
        </mxCell>
        <mxCell id="UBPbaVSDeuR6Y1h6aldy-1" value="" style="ellipse;whiteSpace=wrap;html=1;aspect=fixed;fillColor=#3BA0D3;strokeColor=none;opacity=69;" parent="UBPbaVSDeuR6Y1h6aldy-20" vertex="1">
          <mxGeometry x="318.18125" y="413.6363636363636" width="636.3625" height="636.3625" as="geometry" />
        </mxCell>
        <mxCell id="UBPbaVSDeuR6Y1h6aldy-2" value="" style="ellipse;whiteSpace=wrap;html=1;aspect=fixed;fillColor=#608738;strokeColor=none;opacity=69;" parent="UBPbaVSDeuR6Y1h6aldy-20" vertex="1">
          <mxGeometry y="159.0909090909091" width="636.3625" height="636.3625" as="geometry" />
        </mxCell>
        <mxCell id="UBPbaVSDeuR6Y1h6aldy-3" value="" style="ellipse;whiteSpace=wrap;html=1;aspect=fixed;fillColor=#C22A22;fillStyle=auto;gradientColor=none;gradientDirection=north;strokeColor=none;opacity=69;" parent="UBPbaVSDeuR6Y1h6aldy-20" vertex="1">
          <mxGeometry x="381.8175" width="636.3625" height="636.3625" as="geometry" />
        </mxCell>
        <mxCell id="UBPbaVSDeuR6Y1h6aldy-21" value="Type&lt;br style=&quot;font-size: 42px;&quot;&gt;&lt;div style=&quot;font-size: 42px;&quot;&gt;Systems&lt;/div&gt;" style="text;html=1;strokeColor=none;fillColor=none;align=center;verticalAlign=middle;whiteSpace=wrap;rounded=0;fontSize=42;" parent="UBPbaVSDeuR6Y1h6aldy-20" vertex="1">
          <mxGeometry x="650" y="270" width="135" height="67.5" as="geometry" />
        </mxCell>
        <mxCell id="UBPbaVSDeuR6Y1h6aldy-22" value="&lt;div style=&quot;font-size: 42px;&quot;&gt;Model Checking&lt;/div&gt;" style="text;html=1;strokeColor=none;fillColor=none;align=center;verticalAlign=middle;whiteSpace=wrap;rounded=0;fontSize=42;" parent="UBPbaVSDeuR6Y1h6aldy-20" vertex="1">
          <mxGeometry x="620" y="765.45" width="60" height="30" as="geometry" />
        </mxCell>
        <mxCell id="UBPbaVSDeuR6Y1h6aldy-23" value="Property&lt;br style=&quot;font-size: 42px;&quot;&gt;&lt;div style=&quot;font-size: 42px;&quot;&gt;Testing&lt;/div&gt;" style="text;html=1;strokeColor=none;fillColor=none;align=center;verticalAlign=middle;whiteSpace=wrap;rounded=0;fontSize=42;" parent="UBPbaVSDeuR6Y1h6aldy-20" vertex="1">
          <mxGeometry x="280" y="462.27" width="60" height="30" as="geometry" />
        </mxCell>
        <mxCell id="UBPbaVSDeuR6Y1h6aldy-31" value="" style="group" parent="1" vertex="1" connectable="0">
          <mxGeometry x="1219.9975" y="2093.82" width="636.3624999999998" height="636.3625000000002" as="geometry" />
        </mxCell>
        <mxCell id="UBPbaVSDeuR6Y1h6aldy-27" value="" style="ellipse;whiteSpace=wrap;html=1;aspect=fixed;fillColor=#C22A22;fillStyle=auto;gradientColor=none;gradientDirection=north;strokeColor=none;opacity=69;" parent="UBPbaVSDeuR6Y1h6aldy-31" vertex="1">
          <mxGeometry width="636.3625" height="636.3625" as="geometry" />
        </mxCell>
        <mxCell id="UBPbaVSDeuR6Y1h6aldy-28" value="Type&lt;br style=&quot;font-size: 42px;&quot;&gt;&lt;div style=&quot;font-size: 42px;&quot;&gt;Systems&lt;/div&gt;" style="text;html=1;strokeColor=none;fillColor=none;align=center;verticalAlign=middle;whiteSpace=wrap;rounded=0;fontSize=42;" parent="UBPbaVSDeuR6Y1h6aldy-31" vertex="1">
          <mxGeometry x="212.27" y="259.43" width="211.82" height="117.5" as="geometry" />
        </mxCell>
        <mxCell id="UBPbaVSDeuR6Y1h6aldy-33" value="" style="group" parent="1" vertex="1" connectable="0">
          <mxGeometry x="200.0012499999999" y="1429.9963636363636" width="636.3624999999998" height="636.3624999999997" as="geometry" />
        </mxCell>
        <mxCell id="UBPbaVSDeuR6Y1h6aldy-25" value="" style="ellipse;whiteSpace=wrap;html=1;aspect=fixed;fillColor=#3BA0D3;strokeColor=none;opacity=69;" parent="UBPbaVSDeuR6Y1h6aldy-33" vertex="1">
          <mxGeometry width="636.3625" height="636.3625" as="geometry" />
        </mxCell>
        <mxCell id="UBPbaVSDeuR6Y1h6aldy-29" value="&lt;div style=&quot;font-size: 42px;&quot;&gt;Model Checking&lt;/div&gt;" style="text;html=1;strokeColor=none;fillColor=none;align=center;verticalAlign=middle;whiteSpace=wrap;rounded=0;fontSize=42;" parent="UBPbaVSDeuR6Y1h6aldy-33" vertex="1">
          <mxGeometry x="219.08999999999997" y="242.28" width="198.18" height="151.81" as="geometry" />
        </mxCell>
        <mxCell id="UBPbaVSDeuR6Y1h6aldy-74" value="" style="group" parent="1" vertex="1" connectable="0">
          <mxGeometry x="4654" y="514" width="1078" height="899" as="geometry" />
        </mxCell>
        <mxCell id="UBPbaVSDeuR6Y1h6aldy-4" value="" style="triangle;whiteSpace=wrap;html=1;rotation=-90;fillColor=#F4C900;strokeWidth=2;perimeterSpacing=0;strokeColor=none;aspect=fixed;" parent="UBPbaVSDeuR6Y1h6aldy-74" vertex="1">
          <mxGeometry x="45" y="404" width="450" height="540" as="geometry" />
        </mxCell>
        <mxCell id="UBPbaVSDeuR6Y1h6aldy-5" value="" style="triangle;whiteSpace=wrap;html=1;rotation=-90;fillColor=#F4C900;strokeWidth=2;perimeterSpacing=0;strokeColor=none;aspect=fixed;" parent="UBPbaVSDeuR6Y1h6aldy-74" vertex="1">
          <mxGeometry x="314" y="-45" width="450" height="540" as="geometry" />
        </mxCell>
        <mxCell id="UBPbaVSDeuR6Y1h6aldy-6" value="" style="triangle;whiteSpace=wrap;html=1;rotation=-90;fillColor=#F4C900;strokeWidth=2;perimeterSpacing=0;strokeColor=none;aspect=fixed;" parent="UBPbaVSDeuR6Y1h6aldy-74" vertex="1">
          <mxGeometry x="583" y="404" width="450" height="540" as="geometry" />
        </mxCell>
        <mxCell id="UBPbaVSDeuR6Y1h6aldy-63" value="&lt;font style=&quot;font-size: 56px;&quot;&gt;Type&lt;br&gt;&lt;/font&gt;&lt;div style=&quot;font-size: 56px;&quot;&gt;&lt;font style=&quot;font-size: 56px;&quot;&gt;Systems&lt;/font&gt;&lt;/div&gt;" style="text;html=1;strokeColor=none;fillColor=none;align=center;verticalAlign=middle;whiteSpace=wrap;rounded=0;fontSize=42;rotation=0;" parent="UBPbaVSDeuR6Y1h6aldy-74" vertex="1">
          <mxGeometry x="419.00106671164485" y="230.00049926669237" width="240" height="150" as="geometry" />
        </mxCell>
        <mxCell id="UBPbaVSDeuR6Y1h6aldy-64" value="&lt;div style=&quot;font-size: 56px;&quot;&gt;&lt;font style=&quot;font-size: 56px;&quot;&gt;Model&lt;br&gt;Checking&lt;/font&gt;&lt;/div&gt;" style="text;html=1;strokeColor=none;fillColor=none;align=center;verticalAlign=middle;whiteSpace=wrap;rounded=0;fontSize=42;rotation=0;" parent="UBPbaVSDeuR6Y1h6aldy-74" vertex="1">
          <mxGeometry x="144.00278433826952" y="677.9991746881137" width="260" height="150" as="geometry" />
        </mxCell>
        <mxCell id="UBPbaVSDeuR6Y1h6aldy-65" value="&lt;font style=&quot;font-size: 56px;&quot;&gt;Property&lt;br&gt;&lt;/font&gt;&lt;div style=&quot;font-size: 56px;&quot;&gt;&lt;font style=&quot;font-size: 56px;&quot;&gt;Testing&lt;/font&gt;&lt;/div&gt;" style="text;html=1;strokeColor=none;fillColor=none;align=center;verticalAlign=middle;whiteSpace=wrap;rounded=0;fontSize=42;rotation=0;" parent="UBPbaVSDeuR6Y1h6aldy-74" vertex="1">
          <mxGeometry x="683.9957417538844" y="677.995546907279" width="240" height="150" as="geometry" />
        </mxCell>
        <mxCell id="UBPbaVSDeuR6Y1h6aldy-75" value="&amp;nbsp;" style="text;whiteSpace=wrap;html=1;" parent="1" vertex="1">
          <mxGeometry x="-90" y="2500" width="40" height="40" as="geometry" />
        </mxCell>
        <mxCell id="UBPbaVSDeuR6Y1h6aldy-40" value="" style="group" parent="1" vertex="1" connectable="0">
          <mxGeometry x="379.99545509924644" y="1940.0029297823048" width="857.829089801507" height="758.8341404353905" as="geometry" />
        </mxCell>
        <mxCell id="UBPbaVSDeuR6Y1h6aldy-38" value="" style="ellipse;shape=cloud;whiteSpace=wrap;html=1;strokeWidth=5;fillColor=#785596;opacity=69;fontSize=64;rotation=-15;" parent="UBPbaVSDeuR6Y1h6aldy-40" vertex="1">
          <mxGeometry x="63.914544900753526" y="84.41707021769525" width="730" height="590" as="geometry" />
        </mxCell>
        <mxCell id="UBPbaVSDeuR6Y1h6aldy-39" value="&lt;div style=&quot;font-size: 64px;&quot;&gt;Implementation&lt;/div&gt;" style="text;html=1;strokeColor=none;fillColor=none;align=center;verticalAlign=middle;whiteSpace=wrap;rounded=0;" parent="UBPbaVSDeuR6Y1h6aldy-40" vertex="1">
          <mxGeometry x="203.91454490075353" y="344.41707021769525" width="460" height="90" as="geometry" />
        </mxCell>
        <mxCell id="UBPbaVSDeuR6Y1h6aldy-84" value="" style="group" parent="1" vertex="1" connectable="0">
          <mxGeometry x="200" y="2610.000909090909" width="636.3625" height="636.3625000000002" as="geometry" />
        </mxCell>
        <mxCell id="UBPbaVSDeuR6Y1h6aldy-26" value="" style="ellipse;whiteSpace=wrap;html=1;aspect=fixed;fillColor=#608738;strokeColor=none;opacity=69;" parent="UBPbaVSDeuR6Y1h6aldy-84" vertex="1">
          <mxGeometry width="636.3625" height="636.3625" as="geometry" />
        </mxCell>
        <mxCell id="UBPbaVSDeuR6Y1h6aldy-30" value="Property&lt;br style=&quot;font-size: 42px;&quot;&gt;&lt;div style=&quot;font-size: 42px;&quot;&gt;Testing&lt;/div&gt;" style="text;html=1;strokeColor=none;fillColor=none;align=center;verticalAlign=middle;whiteSpace=wrap;rounded=0;fontSize=42;" parent="UBPbaVSDeuR6Y1h6aldy-84" vertex="1">
          <mxGeometry x="208.18" y="251.58909090909128" width="220" height="133.18" as="geometry" />
        </mxCell>
        <mxCell id="UBPbaVSDeuR6Y1h6aldy-89" value="" style="group" parent="1" vertex="1" connectable="0">
          <mxGeometry x="-3829.9987500000007" y="829.9963636363636" width="1086.3587499999999" height="1023.1870454545453" as="geometry" />
        </mxCell>
        <mxCell id="UBPbaVSDeuR6Y1h6aldy-77" value="" style="group" parent="UBPbaVSDeuR6Y1h6aldy-89" vertex="1" connectable="0">
          <mxGeometry width="1086.3587499999999" height="636.3624999999997" as="geometry" />
        </mxCell>
        <mxCell id="UBPbaVSDeuR6Y1h6aldy-78" value="" style="ellipse;whiteSpace=wrap;html=1;aspect=fixed;fillColor=#3BA0D3;strokeColor=none;opacity=69;" parent="UBPbaVSDeuR6Y1h6aldy-77" vertex="1">
          <mxGeometry width="636.3625" height="636.3625" as="geometry" />
        </mxCell>
        <mxCell id="UBPbaVSDeuR6Y1h6aldy-79" value="&lt;div style=&quot;font-size: 54px;&quot;&gt;Model&lt;br&gt;Checking&lt;/div&gt;" style="text;html=1;strokeColor=none;fillColor=none;align=center;verticalAlign=middle;whiteSpace=wrap;rounded=0;fontSize=54;" parent="UBPbaVSDeuR6Y1h6aldy-77" vertex="1">
          <mxGeometry x="113.08999999999997" y="278.28" width="410" height="80" as="geometry" />
        </mxCell>
        <mxCell id="UBPbaVSDeuR6Y1h6aldy-80" value="" style="group" parent="UBPbaVSDeuR6Y1h6aldy-77" vertex="1" connectable="0">
          <mxGeometry x="449.99625000000015" y="-9.996363636363412" width="636.3624999999998" height="636.3625000000002" as="geometry" />
        </mxCell>
        <mxCell id="UBPbaVSDeuR6Y1h6aldy-81" value="" style="ellipse;whiteSpace=wrap;html=1;aspect=fixed;fillColor=#C22A22;fillStyle=auto;gradientColor=none;gradientDirection=north;strokeColor=none;opacity=69;" parent="UBPbaVSDeuR6Y1h6aldy-80" vertex="1">
          <mxGeometry width="636.3625" height="636.3625" as="geometry" />
        </mxCell>
        <mxCell id="UBPbaVSDeuR6Y1h6aldy-82" value="Type&lt;br style=&quot;font-size: 54px;&quot;&gt;&lt;div style=&quot;font-size: 54px;&quot;&gt;Systems&lt;/div&gt;" style="text;html=1;strokeColor=none;fillColor=none;align=center;verticalAlign=middle;whiteSpace=wrap;rounded=0;fontSize=54;" parent="UBPbaVSDeuR6Y1h6aldy-80" vertex="1">
          <mxGeometry x="212.27" y="259.43" width="211.82" height="117.5" as="geometry" />
        </mxCell>
        <mxCell id="UBPbaVSDeuR6Y1h6aldy-85" value="" style="group" parent="UBPbaVSDeuR6Y1h6aldy-89" vertex="1" connectable="0">
          <mxGeometry x="229.9987500000002" y="386.82454545454516" width="636.3625" height="636.3625000000002" as="geometry" />
        </mxCell>
        <mxCell id="UBPbaVSDeuR6Y1h6aldy-86" value="" style="ellipse;whiteSpace=wrap;html=1;aspect=fixed;fillColor=#608738;strokeColor=none;opacity=69;" parent="UBPbaVSDeuR6Y1h6aldy-85" vertex="1">
          <mxGeometry width="636.3625" height="636.3625" as="geometry" />
        </mxCell>
        <mxCell id="UBPbaVSDeuR6Y1h6aldy-87" value="Property&lt;br style=&quot;font-size: 54px;&quot;&gt;&lt;div style=&quot;font-size: 54px;&quot;&gt;Testing&lt;/div&gt;" style="text;html=1;strokeColor=none;fillColor=none;align=center;verticalAlign=middle;whiteSpace=wrap;rounded=0;fontSize=54;" parent="UBPbaVSDeuR6Y1h6aldy-85" vertex="1">
          <mxGeometry x="208.18" y="251.58909090909128" width="220" height="133.18" as="geometry" />
        </mxCell>
        <mxCell id="UBPbaVSDeuR6Y1h6aldy-88" value="Correctness" style="text;html=1;strokeColor=none;fillColor=none;align=center;verticalAlign=middle;whiteSpace=wrap;rounded=0;fontSize=54;" parent="UBPbaVSDeuR6Y1h6aldy-85" vertex="1">
          <mxGeometry x="258.17999999999984" y="27.1790909090912" width="120" height="80" as="geometry" />
        </mxCell>
        <mxCell id="UBPbaVSDeuR6Y1h6aldy-90" value="&lt;font style=&quot;font-size: 54px;&quot;&gt;&lt;b&gt;+&lt;/b&gt; Exhaustive search&lt;/font&gt;&lt;div style=&quot;font-size: 54px;&quot;&gt;&lt;font style=&quot;font-size: 54px;&quot;&gt;&lt;b&gt;+&lt;/b&gt; Counterexample generation&lt;br&gt;&lt;b&gt;-&lt;/b&gt; Model completely detached from implementation&lt;/font&gt;&lt;/div&gt;" style="text;html=1;strokeColor=none;fillColor=none;align=left;verticalAlign=middle;whiteSpace=wrap;rounded=0;fontSize=42;rotation=5;" parent="1" vertex="1">
          <mxGeometry x="-4309.9972156617305" y="759.9991746881137" width="550" height="720" as="geometry" />
        </mxCell>
        <mxCell id="UBPbaVSDeuR6Y1h6aldy-91" value="&lt;div style=&quot;font-size: 54px;&quot; align=&quot;left&quot;&gt;&lt;font style=&quot;font-size: 54px;&quot;&gt;&lt;b&gt;+&lt;/b&gt; Numerous compile-time checks&lt;br&gt;&lt;font style=&quot;font-size: 54px;&quot;&gt;&lt;b&gt;+&lt;/b&gt; Programming language support&lt;br&gt;&lt;/font&gt;&lt;b&gt;-&lt;/b&gt; &lt;font style=&quot;font-size: 54px;&quot;&gt;Guarantees only as strong as the underlying theory&lt;/font&gt;&lt;/font&gt;&lt;/div&gt;" style="text;html=1;strokeColor=none;fillColor=none;align=left;verticalAlign=middle;whiteSpace=wrap;rounded=0;fontSize=42;rotation=-20;" parent="1" vertex="1">
          <mxGeometry x="-2729.998933288355" y="541.8604992666924" width="680" height="705.63" as="geometry" />
        </mxCell>
        <mxCell id="UBPbaVSDeuR6Y1h6aldy-92" value="&lt;div style=&quot;font-size: 54px;&quot; align=&quot;left&quot;&gt;&lt;b&gt;+&lt;/b&gt; Easy to write&lt;/div&gt;&lt;div style=&quot;font-size: 54px;&quot; align=&quot;left&quot;&gt;&lt;b&gt;+&lt;/b&gt; Widely used&lt;/div&gt;&lt;div style=&quot;font-size: 54px;&quot; align=&quot;left&quot;&gt;&lt;b&gt;-&lt;/b&gt; No guarantees&lt;br&gt;&lt;/div&gt;" style="text;html=1;strokeColor=none;fillColor=none;align=left;verticalAlign=middle;whiteSpace=wrap;rounded=0;fontSize=42;rotation=10;" parent="1" vertex="1">
          <mxGeometry x="-3560.004258246116" y="1856.3555469072792" width="410" height="210" as="geometry" />
        </mxCell>
        <mxCell id="UBPbaVSDeuR6Y1h6aldy-97" value="" style="group" parent="1" vertex="1" connectable="0">
          <mxGeometry x="4020.001483507769" y="-844.9989061854421" width="679.9985164922309" height="789.6945690990899" as="geometry" />
        </mxCell>
        <mxCell id="UBPbaVSDeuR6Y1h6aldy-98" value="" style="group;rotation=15;" parent="UBPbaVSDeuR6Y1h6aldy-97" vertex="1" connectable="0">
          <mxGeometry x="49.03425824611577" y="62.21445309272099" width="560.9642582461152" height="450" as="geometry" />
        </mxCell>
        <mxCell id="UBPbaVSDeuR6Y1h6aldy-99" value="" style="triangle;whiteSpace=wrap;html=1;rotation=-75;fillColor=#608738;strokeWidth=2;perimeterSpacing=0;strokeColor=none;aspect=fixed;" parent="UBPbaVSDeuR6Y1h6aldy-98" vertex="1">
          <mxGeometry x="45" y="-45" width="450" height="540" as="geometry" />
        </mxCell>
        <mxCell id="UBPbaVSDeuR6Y1h6aldy-100" value="&lt;font style=&quot;font-size: 56px;&quot;&gt;Property&lt;br style=&quot;font-size: 56px;&quot;&gt;&lt;/font&gt;&lt;div style=&quot;font-size: 56px;&quot;&gt;&lt;font style=&quot;font-size: 56px;&quot;&gt;Testing&lt;/font&gt;&lt;/div&gt;" style="text;html=1;strokeColor=none;fillColor=none;align=center;verticalAlign=middle;whiteSpace=wrap;rounded=0;fontSize=56;rotation=15;" parent="UBPbaVSDeuR6Y1h6aldy-98" vertex="1">
          <mxGeometry x="163.96" y="238.99999999999997" width="180" height="110" as="geometry" />
        </mxCell>
        <mxCell id="B-UHLOG65UjDEOoMh8zh-72" value="" style="ellipse;whiteSpace=wrap;html=1;aspect=fixed;fontColor=#785596;strokeColor=default;fillColor=#785596;opacity=69;strokeWidth=4;" vertex="1" parent="UBPbaVSDeuR6Y1h6aldy-98">
          <mxGeometry x="420.9642582461151" y="222.00445309272118" width="50" height="50" as="geometry" />
        </mxCell>
        <mxCell id="B-UHLOG65UjDEOoMh8zh-73" value="" style="ellipse;whiteSpace=wrap;html=1;aspect=fixed;fontColor=#785596;strokeColor=default;fillColor=#785596;opacity=69;strokeWidth=4;" vertex="1" parent="UBPbaVSDeuR6Y1h6aldy-98">
          <mxGeometry x="480.96425824611515" y="252.00445309272118" width="80" height="80" as="geometry" />
        </mxCell>
        <mxCell id="UBPbaVSDeuR6Y1h6aldy-101" value="&lt;div style=&quot;font-size: 52px;&quot; align=&quot;left&quot;&gt;&lt;b style=&quot;font-size: 52px;&quot;&gt;+&lt;/b&gt; Easy to write&lt;/div&gt;&lt;div style=&quot;font-size: 52px;&quot; align=&quot;left&quot;&gt;&lt;b style=&quot;font-size: 52px;&quot;&gt;+&lt;/b&gt; Widely used&lt;/div&gt;&lt;div style=&quot;font-size: 52px;&quot; align=&quot;left&quot;&gt;&lt;b style=&quot;font-size: 52px;&quot;&gt;-&lt;/b&gt; No guarantees&lt;br style=&quot;font-size: 52px;&quot;&gt;&lt;/div&gt;" style="text;html=1;strokeColor=none;fillColor=none;align=left;verticalAlign=middle;whiteSpace=wrap;rounded=0;fontSize=52;rotation=15;" parent="UBPbaVSDeuR6Y1h6aldy-97" vertex="1">
          <mxGeometry x="56.03425824611577" y="530.214453092721" width="410" height="210" as="geometry" />
        </mxCell>
        <mxCell id="UBPbaVSDeuR6Y1h6aldy-104" value="" style="group;rotation=-5;" parent="1" vertex="1" connectable="0">
          <mxGeometry x="2710.0027843382695" y="-1147.510825311886" width="1149.9972156617305" height="884.9816506237726" as="geometry" />
        </mxCell>
        <mxCell id="UBPbaVSDeuR6Y1h6aldy-105" value="" style="group;rotation=-10;" parent="UBPbaVSDeuR6Y1h6aldy-104" vertex="1" connectable="0">
          <mxGeometry x="473" y="287" width="540" height="450" as="geometry" />
        </mxCell>
        <mxCell id="UBPbaVSDeuR6Y1h6aldy-106" value="" style="triangle;whiteSpace=wrap;html=1;rotation=-100;fillColor=#3BA0D3;strokeWidth=2;perimeterSpacing=0;strokeColor=none;aspect=fixed;" parent="UBPbaVSDeuR6Y1h6aldy-105" vertex="1">
          <mxGeometry x="45" y="-45" width="450" height="540" as="geometry" />
        </mxCell>
        <mxCell id="UBPbaVSDeuR6Y1h6aldy-107" value="&lt;div style=&quot;font-size: 56px;&quot;&gt;&lt;font style=&quot;font-size: 56px;&quot;&gt;Model&lt;br style=&quot;font-size: 56px;&quot;&gt;Checking&lt;/font&gt;&lt;/div&gt;" style="text;html=1;strokeColor=none;fillColor=none;align=center;verticalAlign=middle;whiteSpace=wrap;rounded=0;fontSize=56;rotation=-10;" parent="UBPbaVSDeuR6Y1h6aldy-105" vertex="1">
          <mxGeometry x="151" y="220.51" width="260" height="150" as="geometry" />
        </mxCell>
        <mxCell id="UBPbaVSDeuR6Y1h6aldy-108" value="&lt;font style=&quot;font-size: 52px;&quot;&gt;&lt;b style=&quot;font-size: 52px;&quot;&gt;+&lt;/b&gt; Exhaustive search&lt;/font&gt;&lt;div style=&quot;font-size: 52px;&quot;&gt;&lt;font style=&quot;font-size: 52px;&quot;&gt;&lt;b style=&quot;font-size: 52px;&quot;&gt;+&lt;/b&gt; Counterexample generation&lt;br style=&quot;font-size: 52px;&quot;&gt;&lt;b style=&quot;font-size: 52px;&quot;&gt;-&lt;/b&gt; Model completely detached from implementation&lt;/font&gt;&lt;/div&gt;" style="text;html=1;strokeColor=none;fillColor=none;align=left;verticalAlign=middle;whiteSpace=wrap;rounded=0;fontSize=52;rotation=20;" parent="UBPbaVSDeuR6Y1h6aldy-104" vertex="1">
          <mxGeometry x="127" y="92" width="550" height="720" as="geometry" />
        </mxCell>
        <mxCell id="B-UHLOG65UjDEOoMh8zh-71" value="" style="ellipse;whiteSpace=wrap;html=1;aspect=fixed;fontColor=#785596;strokeColor=default;fillColor=#785596;opacity=69;strokeWidth=4;" vertex="1" parent="UBPbaVSDeuR6Y1h6aldy-104">
          <mxGeometry x="739.9972156617305" y="812.000825311886" width="80" height="80" as="geometry" />
        </mxCell>
        <mxCell id="B-UHLOG65UjDEOoMh8zh-85" value="" style="group" vertex="1" connectable="0" parent="UBPbaVSDeuR6Y1h6aldy-104">
          <mxGeometry x="459.9988593381149" y="-612.4865128726312" width="689.9983563236156" height="557.1846763690346" as="geometry" />
        </mxCell>
        <mxCell id="B-UHLOG65UjDEOoMh8zh-58" value="" style="ellipse;shape=cloud;whiteSpace=wrap;html=1;strokeWidth=5;fillColor=#785596;opacity=69;fontSize=64;rotation=-15;" vertex="1" parent="B-UHLOG65UjDEOoMh8zh-85">
          <mxGeometry x="44.138356323615426" y="69.2173381845173" width="590" height="418.75" as="geometry" />
        </mxCell>
        <mxCell id="B-UHLOG65UjDEOoMh8zh-59" value="&lt;div style=&quot;font-size: 64px;&quot;&gt;Correctness&lt;/div&gt;" style="text;html=1;strokeColor=none;fillColor=none;align=center;verticalAlign=middle;whiteSpace=wrap;rounded=0;" vertex="1" parent="B-UHLOG65UjDEOoMh8zh-85">
          <mxGeometry x="124.13835632361543" y="244.2173381845173" width="460" height="90" as="geometry" />
        </mxCell>
        <mxCell id="B-UHLOG65UjDEOoMh8zh-65" value="" style="ellipse;whiteSpace=wrap;html=1;aspect=fixed;fontColor=#785596;strokeColor=default;fillColor=#785596;opacity=69;strokeWidth=4;" vertex="1" parent="B-UHLOG65UjDEOoMh8zh-85">
          <mxGeometry x="539.9983563236156" y="379.9973381845173" width="80" height="80" as="geometry" />
        </mxCell>
        <mxCell id="B-UHLOG65UjDEOoMh8zh-66" value="" style="ellipse;whiteSpace=wrap;html=1;aspect=fixed;fontColor=#785596;strokeColor=default;fillColor=#785596;opacity=69;strokeWidth=4;" vertex="1" parent="B-UHLOG65UjDEOoMh8zh-85">
          <mxGeometry x="639.9983563236156" y="419.9973381845173" width="50" height="50" as="geometry" />
        </mxCell>
        <mxCell id="UBPbaVSDeuR6Y1h6aldy-112" value="&lt;div style=&quot;font-size: 52px;&quot; align=&quot;left&quot;&gt;&lt;font style=&quot;font-size: 52px;&quot;&gt;&lt;b style=&quot;font-size: 52px;&quot;&gt;+&lt;/b&gt; Numerous compile-time checks&lt;br style=&quot;font-size: 52px;&quot;&gt;&lt;font style=&quot;font-size: 52px;&quot;&gt;&lt;b style=&quot;font-size: 52px;&quot;&gt;+&lt;/b&gt; Programming language support&lt;br style=&quot;font-size: 52px;&quot;&gt;&lt;/font&gt;&lt;b style=&quot;font-size: 52px;&quot;&gt;-&lt;/b&gt; &lt;font style=&quot;font-size: 52px;&quot;&gt;Guarantees only as strong as the underlying theory&lt;/font&gt;&lt;/font&gt;&lt;/div&gt;" style="text;html=1;strokeColor=none;fillColor=none;align=left;verticalAlign=middle;whiteSpace=wrap;rounded=0;fontSize=52;rotation=-20;" parent="1" vertex="1">
          <mxGeometry x="4240.001066711645" y="-1809.9995007333077" width="680" height="705.63" as="geometry" />
        </mxCell>
        <mxCell id="B-UHLOG65UjDEOoMh8zh-4" value="" style="group" vertex="1" connectable="0" parent="1">
          <mxGeometry x="3390.001483507769" y="-4264.998906185442" width="638.0685164922315" height="789.6945690990899" as="geometry" />
        </mxCell>
        <mxCell id="B-UHLOG65UjDEOoMh8zh-5" value="" style="group;rotation=15;" vertex="1" connectable="0" parent="B-UHLOG65UjDEOoMh8zh-4">
          <mxGeometry x="49.03425824611577" y="62.21445309272099" width="540" height="450" as="geometry" />
        </mxCell>
        <mxCell id="B-UHLOG65UjDEOoMh8zh-6" value="" style="triangle;whiteSpace=wrap;html=1;rotation=-75;fillColor=#608738;strokeWidth=2;perimeterSpacing=0;strokeColor=none;aspect=fixed;" vertex="1" parent="B-UHLOG65UjDEOoMh8zh-5">
          <mxGeometry x="45" y="-45" width="450" height="540" as="geometry" />
        </mxCell>
        <mxCell id="B-UHLOG65UjDEOoMh8zh-7" value="&lt;font style=&quot;font-size: 56px;&quot;&gt;Property&lt;br&gt;&lt;/font&gt;&lt;div style=&quot;font-size: 56px;&quot;&gt;&lt;font style=&quot;font-size: 56px;&quot;&gt;Testing&lt;/font&gt;&lt;/div&gt;" style="text;html=1;strokeColor=none;fillColor=none;align=center;verticalAlign=middle;whiteSpace=wrap;rounded=0;fontSize=42;rotation=15;" vertex="1" parent="B-UHLOG65UjDEOoMh8zh-5">
          <mxGeometry x="167" y="222" width="180" height="110" as="geometry" />
        </mxCell>
        <mxCell id="B-UHLOG65UjDEOoMh8zh-8" value="&lt;div style=&quot;font-size: 54px;&quot; align=&quot;left&quot;&gt;&lt;b&gt;+&lt;/b&gt; Easy to write&lt;/div&gt;&lt;div style=&quot;font-size: 54px;&quot; align=&quot;left&quot;&gt;&lt;b&gt;+&lt;/b&gt; Widely used&lt;/div&gt;&lt;div style=&quot;font-size: 54px;&quot; align=&quot;left&quot;&gt;&lt;b&gt;-&lt;/b&gt; No guarantees&lt;br&gt;&lt;/div&gt;" style="text;html=1;strokeColor=none;fillColor=none;align=left;verticalAlign=middle;whiteSpace=wrap;rounded=0;fontSize=42;rotation=15;" vertex="1" parent="B-UHLOG65UjDEOoMh8zh-4">
          <mxGeometry x="56.03425824611577" y="530.214453092721" width="410" height="210" as="geometry" />
        </mxCell>
        <mxCell id="B-UHLOG65UjDEOoMh8zh-11" value="" style="group;rotation=-5;" vertex="1" connectable="0" parent="1">
          <mxGeometry x="2080.0027843382695" y="-4567.510825311886" width="1024.959826264725" height="884.9816506237726" as="geometry" />
        </mxCell>
        <mxCell id="B-UHLOG65UjDEOoMh8zh-12" value="" style="group;rotation=-10;" vertex="1" connectable="0" parent="B-UHLOG65UjDEOoMh8zh-11">
          <mxGeometry x="473" y="287" width="540" height="450" as="geometry" />
        </mxCell>
        <mxCell id="B-UHLOG65UjDEOoMh8zh-13" value="" style="triangle;whiteSpace=wrap;html=1;rotation=-100;fillColor=#3BA0D3;strokeWidth=2;perimeterSpacing=0;strokeColor=none;aspect=fixed;" vertex="1" parent="B-UHLOG65UjDEOoMh8zh-12">
          <mxGeometry x="45" y="-45" width="450" height="540" as="geometry" />
        </mxCell>
        <mxCell id="B-UHLOG65UjDEOoMh8zh-14" value="&lt;div style=&quot;font-size: 56px;&quot;&gt;&lt;font style=&quot;font-size: 56px;&quot;&gt;Model&lt;br&gt;Checking&lt;/font&gt;&lt;/div&gt;" style="text;html=1;strokeColor=none;fillColor=none;align=center;verticalAlign=middle;whiteSpace=wrap;rounded=0;fontSize=42;rotation=-10;" vertex="1" parent="B-UHLOG65UjDEOoMh8zh-12">
          <mxGeometry x="121" y="248" width="320" height="60" as="geometry" />
        </mxCell>
        <mxCell id="B-UHLOG65UjDEOoMh8zh-15" value="&lt;font style=&quot;font-size: 54px;&quot;&gt;&lt;b&gt;+&lt;/b&gt; Exhaustive search&lt;/font&gt;&lt;div style=&quot;font-size: 54px;&quot;&gt;&lt;font style=&quot;font-size: 54px;&quot;&gt;&lt;b&gt;+&lt;/b&gt; Counterexample generation&lt;br&gt;&lt;b&gt;-&lt;/b&gt; Model completely detached from implementation&lt;/font&gt;&lt;/div&gt;" style="text;html=1;strokeColor=none;fillColor=none;align=left;verticalAlign=middle;whiteSpace=wrap;rounded=0;fontSize=42;rotation=20;" vertex="1" parent="B-UHLOG65UjDEOoMh8zh-11">
          <mxGeometry x="127" y="92" width="550" height="720" as="geometry" />
        </mxCell>
        <mxCell id="B-UHLOG65UjDEOoMh8zh-16" value="&lt;div style=&quot;font-size: 54px;&quot; align=&quot;left&quot;&gt;&lt;font style=&quot;font-size: 54px;&quot;&gt;&lt;b&gt;+&lt;/b&gt; Numerous compile-time checks&lt;br&gt;&lt;font style=&quot;font-size: 54px;&quot;&gt;&lt;b&gt;+&lt;/b&gt; Programming language support&lt;br&gt;&lt;/font&gt;&lt;b&gt;-&lt;/b&gt; &lt;font style=&quot;font-size: 54px;&quot;&gt;Guarantees only as strong as the underlying theory&lt;/font&gt;&lt;/font&gt;&lt;/div&gt;" style="text;html=1;strokeColor=none;fillColor=none;align=left;verticalAlign=middle;whiteSpace=wrap;rounded=0;fontSize=42;rotation=-20;" vertex="1" parent="1">
          <mxGeometry x="3610.001066711645" y="-5229.999500733307" width="680" height="705.63" as="geometry" />
        </mxCell>
        <mxCell id="B-UHLOG65UjDEOoMh8zh-17" value="" style="group" vertex="1" connectable="0" parent="1">
          <mxGeometry x="2960.001747287555" y="-4520.003990348233" width="676.6565054248895" height="551.1379806964651" as="geometry" />
        </mxCell>
        <mxCell id="B-UHLOG65UjDEOoMh8zh-9" value="" style="ellipse;shape=cloud;whiteSpace=wrap;html=1;strokeWidth=5;fillColor=#785596;opacity=69;fontSize=64;rotation=-15;" vertex="1" parent="B-UHLOG65UjDEOoMh8zh-17">
          <mxGeometry x="43.32825271244474" y="69.32399034823266" width="590" height="412.49" as="geometry" />
        </mxCell>
        <mxCell id="B-UHLOG65UjDEOoMh8zh-10" value="&lt;div&gt;Specification&lt;/div&gt;" style="text;html=1;strokeColor=none;fillColor=none;align=center;verticalAlign=middle;whiteSpace=wrap;rounded=0;fontSize=56;" vertex="1" parent="B-UHLOG65UjDEOoMh8zh-17">
          <mxGeometry x="119.26825271244479" y="249.65399034823258" width="460" height="90" as="geometry" />
        </mxCell>
        <mxCell id="B-UHLOG65UjDEOoMh8zh-18" value="" style="endArrow=classic;html=1;rounded=0;entryX=0;entryY=0.5;entryDx=0;entryDy=0;exitX=0.625;exitY=0.2;exitDx=0;exitDy=0;exitPerimeter=0;strokeWidth=10;fontSize=56;" edge="1" parent="1" source="B-UHLOG65UjDEOoMh8zh-9" target="B-UHLOG65UjDEOoMh8zh-2">
          <mxGeometry relative="1" as="geometry">
            <mxPoint x="4350" y="-4520" as="sourcePoint" />
            <mxPoint x="4450" y="-4520" as="targetPoint" />
          </mxGeometry>
        </mxCell>
        <mxCell id="B-UHLOG65UjDEOoMh8zh-19" value="Type selection" style="edgeLabel;resizable=0;html=1;align=center;verticalAlign=middle;fontSize=42;" connectable="0" vertex="1" parent="B-UHLOG65UjDEOoMh8zh-18">
          <mxGeometry relative="1" as="geometry" />
        </mxCell>
        <mxCell id="B-UHLOG65UjDEOoMh8zh-20" value="" style="endArrow=classic;html=1;rounded=0;exitX=0.13;exitY=0.77;exitDx=0;exitDy=0;exitPerimeter=0;strokeWidth=10;fontSize=56;entryX=0.314;entryY=0.841;entryDx=0;entryDy=0;entryPerimeter=0;" edge="1" parent="1" source="B-UHLOG65UjDEOoMh8zh-9" target="B-UHLOG65UjDEOoMh8zh-13">
          <mxGeometry relative="1" as="geometry">
            <mxPoint x="3348" y="-4373" as="sourcePoint" />
            <mxPoint x="3406" y="-4530" as="targetPoint" />
          </mxGeometry>
        </mxCell>
        <mxCell id="B-UHLOG65UjDEOoMh8zh-21" value="&lt;div&gt;Formal model&lt;/div&gt;" style="edgeLabel;resizable=0;html=1;align=center;verticalAlign=middle;fontSize=42;rotation=45;" connectable="0" vertex="1" parent="B-UHLOG65UjDEOoMh8zh-20">
          <mxGeometry relative="1" as="geometry">
            <mxPoint x="13" y="-13" as="offset" />
          </mxGeometry>
        </mxCell>
        <mxCell id="B-UHLOG65UjDEOoMh8zh-22" value="" style="endArrow=classic;html=1;rounded=0;exitX=0.55;exitY=0.95;exitDx=0;exitDy=0;exitPerimeter=0;strokeWidth=10;fontSize=56;" edge="1" parent="1" source="B-UHLOG65UjDEOoMh8zh-9" target="B-UHLOG65UjDEOoMh8zh-6">
          <mxGeometry relative="1" as="geometry">
            <mxPoint x="3348" y="-4373" as="sourcePoint" />
            <mxPoint x="3406" y="-4530" as="targetPoint" />
          </mxGeometry>
        </mxCell>
        <mxCell id="B-UHLOG65UjDEOoMh8zh-23" value="Test writing" style="edgeLabel;resizable=0;html=1;align=center;verticalAlign=middle;fontSize=42;rotation=-45;" connectable="0" vertex="1" parent="B-UHLOG65UjDEOoMh8zh-22">
          <mxGeometry relative="1" as="geometry" />
        </mxCell>
        <mxCell id="B-UHLOG65UjDEOoMh8zh-39" value="" style="group" vertex="1" connectable="0" parent="1">
          <mxGeometry x="5360.001249999999" y="-4930.003636363636" width="1086.3587499999999" height="1023.1870454545453" as="geometry" />
        </mxCell>
        <mxCell id="B-UHLOG65UjDEOoMh8zh-40" value="" style="group" vertex="1" connectable="0" parent="B-UHLOG65UjDEOoMh8zh-39">
          <mxGeometry width="1086.3587499999999" height="636.3624999999997" as="geometry" />
        </mxCell>
        <mxCell id="B-UHLOG65UjDEOoMh8zh-41" value="" style="ellipse;whiteSpace=wrap;html=1;aspect=fixed;fillColor=#3BA0D3;strokeColor=none;opacity=69;" vertex="1" parent="B-UHLOG65UjDEOoMh8zh-40">
          <mxGeometry width="636.3625" height="636.3625" as="geometry" />
        </mxCell>
        <mxCell id="B-UHLOG65UjDEOoMh8zh-42" value="&lt;div style=&quot;font-size: 54px;&quot;&gt;Model&lt;br&gt;Checking&lt;/div&gt;" style="text;html=1;strokeColor=none;fillColor=none;align=center;verticalAlign=middle;whiteSpace=wrap;rounded=0;fontSize=54;" vertex="1" parent="B-UHLOG65UjDEOoMh8zh-40">
          <mxGeometry x="113.08999999999997" y="278.28" width="410" height="80" as="geometry" />
        </mxCell>
        <mxCell id="B-UHLOG65UjDEOoMh8zh-43" value="" style="group" vertex="1" connectable="0" parent="B-UHLOG65UjDEOoMh8zh-40">
          <mxGeometry x="449.99625000000015" y="-9.996363636363412" width="636.3624999999998" height="636.3625000000002" as="geometry" />
        </mxCell>
        <mxCell id="B-UHLOG65UjDEOoMh8zh-44" value="" style="ellipse;whiteSpace=wrap;html=1;aspect=fixed;fillColor=#C22A22;fillStyle=auto;gradientColor=none;gradientDirection=north;strokeColor=none;opacity=69;" vertex="1" parent="B-UHLOG65UjDEOoMh8zh-43">
          <mxGeometry width="636.3625" height="636.3625" as="geometry" />
        </mxCell>
        <mxCell id="B-UHLOG65UjDEOoMh8zh-45" value="Type&lt;br style=&quot;font-size: 54px;&quot;&gt;&lt;div style=&quot;font-size: 54px;&quot;&gt;Systems&lt;/div&gt;" style="text;html=1;strokeColor=none;fillColor=none;align=center;verticalAlign=middle;whiteSpace=wrap;rounded=0;fontSize=54;" vertex="1" parent="B-UHLOG65UjDEOoMh8zh-43">
          <mxGeometry x="212.27" y="259.43" width="211.82" height="117.5" as="geometry" />
        </mxCell>
        <mxCell id="B-UHLOG65UjDEOoMh8zh-46" value="" style="group" vertex="1" connectable="0" parent="B-UHLOG65UjDEOoMh8zh-39">
          <mxGeometry x="229.9987500000002" y="386.82454545454516" width="636.3625" height="636.3625000000002" as="geometry" />
        </mxCell>
        <mxCell id="B-UHLOG65UjDEOoMh8zh-47" value="" style="ellipse;whiteSpace=wrap;html=1;aspect=fixed;fillColor=#608738;strokeColor=none;opacity=69;" vertex="1" parent="B-UHLOG65UjDEOoMh8zh-46">
          <mxGeometry width="636.3625" height="636.3625" as="geometry" />
        </mxCell>
        <mxCell id="B-UHLOG65UjDEOoMh8zh-48" value="Property&lt;br style=&quot;font-size: 54px;&quot;&gt;&lt;div style=&quot;font-size: 54px;&quot;&gt;Testing&lt;/div&gt;" style="text;html=1;strokeColor=none;fillColor=none;align=center;verticalAlign=middle;whiteSpace=wrap;rounded=0;fontSize=54;" vertex="1" parent="B-UHLOG65UjDEOoMh8zh-46">
          <mxGeometry x="208.18" y="251.58909090909128" width="220" height="133.18" as="geometry" />
        </mxCell>
        <mxCell id="B-UHLOG65UjDEOoMh8zh-49" value="Correctness" style="text;html=1;strokeColor=none;fillColor=none;align=center;verticalAlign=middle;whiteSpace=wrap;rounded=0;fontSize=54;" vertex="1" parent="B-UHLOG65UjDEOoMh8zh-46">
          <mxGeometry x="258.17999999999984" y="27.1790909090912" width="120" height="80" as="geometry" />
        </mxCell>
        <mxCell id="B-UHLOG65UjDEOoMh8zh-50" value="" style="shape=flexArrow;endArrow=classic;html=1;rounded=0;strokeWidth=7;" edge="1" parent="1">
          <mxGeometry width="50" height="50" relative="1" as="geometry">
            <mxPoint x="4030" y="-4310" as="sourcePoint" />
            <mxPoint x="5290" y="-4310" as="targetPoint" />
          </mxGeometry>
        </mxCell>
        <mxCell id="B-UHLOG65UjDEOoMh8zh-60" value="" style="group" vertex="1" connectable="0" parent="1">
          <mxGeometry x="4540.001643676384" y="-399.9973381845173" width="678.2767126472313" height="557.1846763690346" as="geometry" />
        </mxCell>
        <mxCell id="B-UHLOG65UjDEOoMh8zh-87" value="" style="group" vertex="1" connectable="0" parent="B-UHLOG65UjDEOoMh8zh-60">
          <mxGeometry x="-60" y="-250" width="678.2767126472309" height="557.1846763690346" as="geometry" />
        </mxCell>
        <mxCell id="B-UHLOG65UjDEOoMh8zh-61" value="" style="ellipse;shape=cloud;whiteSpace=wrap;html=1;strokeWidth=5;fillColor=#785596;opacity=69;fontSize=64;rotation=-15;" vertex="1" parent="B-UHLOG65UjDEOoMh8zh-87">
          <mxGeometry x="44.138356323615426" y="69.2173381845173" width="590" height="418.75" as="geometry" />
        </mxCell>
        <mxCell id="B-UHLOG65UjDEOoMh8zh-62" value="&lt;div style=&quot;font-size: 64px;&quot;&gt;Correctness&lt;/div&gt;" style="text;html=1;strokeColor=none;fillColor=none;align=center;verticalAlign=middle;whiteSpace=wrap;rounded=0;" vertex="1" parent="B-UHLOG65UjDEOoMh8zh-87">
          <mxGeometry x="124.13835632361543" y="244.2173381845173" width="460" height="90" as="geometry" />
        </mxCell>
        <mxCell id="B-UHLOG65UjDEOoMh8zh-63" value="" style="group" vertex="1" connectable="0" parent="1">
          <mxGeometry x="3600.001643676384" y="-1089.9973381845173" width="678.2767126472318" height="557.1846763690346" as="geometry" />
        </mxCell>
        <mxCell id="B-UHLOG65UjDEOoMh8zh-53" value="" style="ellipse;shape=cloud;whiteSpace=wrap;html=1;strokeWidth=5;fillColor=#8B1233;opacity=69;fontSize=64;rotation=-15;" vertex="1" parent="B-UHLOG65UjDEOoMh8zh-63">
          <mxGeometry x="44.13835632361588" y="69.2173381845173" width="590" height="418.75" as="geometry" />
        </mxCell>
        <mxCell id="B-UHLOG65UjDEOoMh8zh-55" value="Specification" style="text;html=1;strokeColor=none;fillColor=none;align=center;verticalAlign=middle;whiteSpace=wrap;rounded=0;fontSize=64;" vertex="1" parent="B-UHLOG65UjDEOoMh8zh-63">
          <mxGeometry x="109.13835632361588" y="249.2173381845173" width="460" height="90" as="geometry" />
        </mxCell>
        <mxCell id="B-UHLOG65UjDEOoMh8zh-78" value="" style="endArrow=classic;html=1;rounded=0;exitX=0;exitY=1;exitDx=0;exitDy=0;entryX=0.5;entryY=1;entryDx=0;entryDy=0;strokeWidth=11;" edge="1" parent="1" source="B-UHLOG65UjDEOoMh8zh-55" target="UBPbaVSDeuR6Y1h6aldy-106">
          <mxGeometry relative="1" as="geometry">
            <mxPoint x="3430" y="-860" as="sourcePoint" />
            <mxPoint x="3530" y="-860" as="targetPoint" />
          </mxGeometry>
        </mxCell>
        <mxCell id="B-UHLOG65UjDEOoMh8zh-79" value="Formal model" style="edgeLabel;resizable=0;html=1;align=center;verticalAlign=middle;fontSize=48;rotation=48;textOpacity=90;" connectable="0" vertex="1" parent="B-UHLOG65UjDEOoMh8zh-78">
          <mxGeometry relative="1" as="geometry" />
        </mxCell>
        <mxCell id="B-UHLOG65UjDEOoMh8zh-80" value="" style="endArrow=classic;html=1;rounded=0;exitX=0.625;exitY=0.2;exitDx=0;exitDy=0;strokeWidth=11;exitPerimeter=0;" edge="1" parent="1" source="B-UHLOG65UjDEOoMh8zh-53" target="UBPbaVSDeuR6Y1h6aldy-110">
          <mxGeometry relative="1" as="geometry">
            <mxPoint x="3719" y="-741" as="sourcePoint" />
            <mxPoint x="3596" y="-649" as="targetPoint" />
          </mxGeometry>
        </mxCell>
        <mxCell id="B-UHLOG65UjDEOoMh8zh-81" value="Type selection" style="edgeLabel;resizable=0;html=1;align=center;verticalAlign=middle;fontSize=48;rotation=12;textOpacity=90;" connectable="0" vertex="1" parent="B-UHLOG65UjDEOoMh8zh-80">
          <mxGeometry relative="1" as="geometry">
            <mxPoint x="-6" y="-3" as="offset" />
          </mxGeometry>
        </mxCell>
        <mxCell id="B-UHLOG65UjDEOoMh8zh-82" value="" style="endArrow=classic;html=1;rounded=0;exitX=0.747;exitY=0.878;exitDx=0;exitDy=0;strokeWidth=11;exitPerimeter=0;" edge="1" parent="1" source="B-UHLOG65UjDEOoMh8zh-53" target="UBPbaVSDeuR6Y1h6aldy-99">
          <mxGeometry relative="1" as="geometry">
            <mxPoint x="3988" y="-942" as="sourcePoint" />
            <mxPoint x="4026" y="-1112" as="targetPoint" />
          </mxGeometry>
        </mxCell>
        <mxCell id="B-UHLOG65UjDEOoMh8zh-83" value="Test writing" style="edgeLabel;resizable=0;html=1;align=center;verticalAlign=middle;fontSize=48;rotation=-43;textOpacity=90;" connectable="0" vertex="1" parent="B-UHLOG65UjDEOoMh8zh-82">
          <mxGeometry relative="1" as="geometry">
            <mxPoint x="-11" y="-11" as="offset" />
          </mxGeometry>
        </mxCell>
        <mxCell id="UBPbaVSDeuR6Y1h6aldy-109" value="" style="group;rotation=0;" parent="1" vertex="1" connectable="0">
          <mxGeometry x="3760.001066711645" y="-1609.9995007333077" width="609.9378665767108" height="536.933504795636" as="geometry" />
        </mxCell>
        <mxCell id="UBPbaVSDeuR6Y1h6aldy-110" value="" style="triangle;whiteSpace=wrap;html=1;rotation=-80;fillColor=#C22A22;strokeWidth=2;perimeterSpacing=0;strokeColor=none;" parent="UBPbaVSDeuR6Y1h6aldy-109" vertex="1">
          <mxGeometry x="80" y="-2" width="450" height="540" as="geometry" />
        </mxCell>
        <mxCell id="UBPbaVSDeuR6Y1h6aldy-111" value="&lt;font style=&quot;font-size: 56px;&quot;&gt;Type&lt;br style=&quot;font-size: 56px;&quot;&gt;&lt;/font&gt;&lt;div style=&quot;font-size: 56px;&quot;&gt;&lt;font style=&quot;font-size: 56px;&quot;&gt;Systems&lt;/font&gt;&lt;/div&gt;" style="text;html=1;strokeColor=none;fillColor=none;align=center;verticalAlign=middle;whiteSpace=wrap;rounded=0;fontSize=56;rotation=10;" parent="UBPbaVSDeuR6Y1h6aldy-109" vertex="1">
          <mxGeometry x="209" y="285" width="180" height="110" as="geometry" />
        </mxCell>
        <mxCell id="B-UHLOG65UjDEOoMh8zh-1" value="" style="group;rotation=0;" vertex="1" connectable="0" parent="1">
          <mxGeometry x="3130.001066711645" y="-5029.999500733307" width="609.9378665767108" height="536.933504795636" as="geometry" />
        </mxCell>
        <mxCell id="B-UHLOG65UjDEOoMh8zh-2" value="" style="triangle;whiteSpace=wrap;html=1;rotation=-80;fillColor=#C22A22;strokeWidth=2;perimeterSpacing=0;strokeColor=none;" vertex="1" parent="B-UHLOG65UjDEOoMh8zh-1">
          <mxGeometry x="80" y="-2" width="450" height="540" as="geometry" />
        </mxCell>
        <mxCell id="B-UHLOG65UjDEOoMh8zh-3" value="&lt;font style=&quot;font-size: 56px;&quot;&gt;Type&lt;br&gt;&lt;/font&gt;&lt;div style=&quot;font-size: 56px;&quot;&gt;&lt;font style=&quot;font-size: 56px;&quot;&gt;Systems&lt;/font&gt;&lt;/div&gt;" style="text;html=1;strokeColor=none;fillColor=none;align=center;verticalAlign=middle;whiteSpace=wrap;rounded=0;fontSize=42;rotation=10;" vertex="1" parent="B-UHLOG65UjDEOoMh8zh-1">
          <mxGeometry x="206" y="270" width="180" height="110" as="geometry" />
        </mxCell>
        <mxCell id="B-UHLOG65UjDEOoMh8zh-56" value="" style="group" vertex="1" connectable="0" parent="1">
          <mxGeometry x="2860.001643676385" y="-459.9973381845173" width="689.9983563236151" height="557.1846763690346" as="geometry" />
        </mxCell>
        <mxCell id="UBPbaVSDeuR6Y1h6aldy-102" value="" style="ellipse;shape=cloud;whiteSpace=wrap;html=1;strokeWidth=5;fillColor=#785596;opacity=69;fontSize=64;rotation=-15;" parent="B-UHLOG65UjDEOoMh8zh-56" vertex="1">
          <mxGeometry x="44.138356323615426" y="69.2173381845173" width="590" height="418.75" as="geometry" />
        </mxCell>
        <mxCell id="UBPbaVSDeuR6Y1h6aldy-103" value="&lt;div style=&quot;font-size: 64px;&quot;&gt;Correctness&lt;/div&gt;" style="text;html=1;strokeColor=none;fillColor=none;align=center;verticalAlign=middle;whiteSpace=wrap;rounded=0;" parent="B-UHLOG65UjDEOoMh8zh-56" vertex="1">
          <mxGeometry x="124.13835632361543" y="244.2173381845173" width="460" height="90" as="geometry" />
        </mxCell>
        <mxCell id="B-UHLOG65UjDEOoMh8zh-70" value="" style="ellipse;whiteSpace=wrap;html=1;aspect=fixed;fontColor=#785596;strokeColor=default;fillColor=#785596;opacity=69;strokeWidth=4;" vertex="1" parent="B-UHLOG65UjDEOoMh8zh-56">
          <mxGeometry x="639.9983563236151" y="59.997338184517275" width="50" height="50" as="geometry" />
        </mxCell>
        <mxCell id="B-UHLOG65UjDEOoMh8zh-106" value="" style="group" vertex="1" connectable="0" parent="1">
          <mxGeometry x="3689.9973085905726" y="1810.0009985333847" width="2325.779086055727" height="1869.7046643802632" as="geometry" />
        </mxCell>
        <mxCell id="UBPbaVSDeuR6Y1h6aldy-61" value="" style="group" parent="B-UHLOG65UjDEOoMh8zh-106" vertex="1" connectable="0">
          <mxGeometry x="1346.6141749171961" y="1080.0100952811733" width="638.0685164922315" height="789.6945690990899" as="geometry" />
        </mxCell>
        <mxCell id="UBPbaVSDeuR6Y1h6aldy-16" value="" style="group;rotation=15;" parent="UBPbaVSDeuR6Y1h6aldy-61" vertex="1" connectable="0">
          <mxGeometry x="49.03425824611577" y="62.21445309272099" width="540" height="450" as="geometry" />
        </mxCell>
        <mxCell id="UBPbaVSDeuR6Y1h6aldy-8" value="" style="triangle;whiteSpace=wrap;html=1;rotation=-75;fillColor=#608738;strokeWidth=2;perimeterSpacing=0;strokeColor=none;aspect=fixed;" parent="UBPbaVSDeuR6Y1h6aldy-16" vertex="1">
          <mxGeometry x="45" y="-45" width="450" height="540" as="geometry" />
        </mxCell>
        <mxCell id="UBPbaVSDeuR6Y1h6aldy-14" value="&lt;font style=&quot;font-size: 56px;&quot;&gt;Property&lt;br&gt;&lt;/font&gt;&lt;div style=&quot;font-size: 56px;&quot;&gt;&lt;font style=&quot;font-size: 56px;&quot;&gt;Testing&lt;/font&gt;&lt;/div&gt;" style="text;html=1;strokeColor=none;fillColor=none;align=center;verticalAlign=middle;whiteSpace=wrap;rounded=0;fontSize=42;rotation=15;" parent="UBPbaVSDeuR6Y1h6aldy-16" vertex="1">
          <mxGeometry x="167" y="222" width="180" height="110" as="geometry" />
        </mxCell>
        <mxCell id="UBPbaVSDeuR6Y1h6aldy-49" value="&lt;div style=&quot;font-size: 54px;&quot; align=&quot;left&quot;&gt;&lt;b&gt;+&lt;/b&gt; Easy to write&lt;/div&gt;&lt;div style=&quot;font-size: 54px;&quot; align=&quot;left&quot;&gt;&lt;b&gt;+&lt;/b&gt; Widely used&lt;/div&gt;&lt;div style=&quot;font-size: 54px;&quot; align=&quot;left&quot;&gt;&lt;b&gt;-&lt;/b&gt; No guarantees&lt;br&gt;&lt;/div&gt;" style="text;html=1;strokeColor=none;fillColor=none;align=left;verticalAlign=middle;whiteSpace=wrap;rounded=0;fontSize=42;rotation=15;" parent="UBPbaVSDeuR6Y1h6aldy-61" vertex="1">
          <mxGeometry x="56.03425824611577" y="530.214453092721" width="410" height="210" as="geometry" />
        </mxCell>
        <mxCell id="UBPbaVSDeuR6Y1h6aldy-58" value="" style="group;rotation=-5;" parent="B-UHLOG65UjDEOoMh8zh-106" vertex="1" connectable="0">
          <mxGeometry x="36.61547574769702" y="777.498176154729" width="1024.959826264725" height="884.9816506237726" as="geometry" />
        </mxCell>
        <mxCell id="UBPbaVSDeuR6Y1h6aldy-15" value="" style="group;rotation=-10;" parent="UBPbaVSDeuR6Y1h6aldy-58" vertex="1" connectable="0">
          <mxGeometry x="473" y="287" width="540" height="450" as="geometry" />
        </mxCell>
        <mxCell id="UBPbaVSDeuR6Y1h6aldy-7" value="" style="triangle;whiteSpace=wrap;html=1;rotation=-100;fillColor=#3BA0D3;strokeWidth=2;perimeterSpacing=0;strokeColor=none;aspect=fixed;" parent="UBPbaVSDeuR6Y1h6aldy-15" vertex="1">
          <mxGeometry x="45" y="-45" width="450" height="540" as="geometry" />
        </mxCell>
        <mxCell id="UBPbaVSDeuR6Y1h6aldy-13" value="&lt;div style=&quot;font-size: 56px;&quot;&gt;&lt;font style=&quot;font-size: 56px;&quot;&gt;Model&lt;br&gt;Checking&lt;/font&gt;&lt;/div&gt;" style="text;html=1;strokeColor=none;fillColor=none;align=center;verticalAlign=middle;whiteSpace=wrap;rounded=0;fontSize=42;rotation=-10;" parent="UBPbaVSDeuR6Y1h6aldy-15" vertex="1">
          <mxGeometry x="121" y="248" width="320" height="60" as="geometry" />
        </mxCell>
        <mxCell id="UBPbaVSDeuR6Y1h6aldy-51" value="&lt;font style=&quot;font-size: 54px;&quot;&gt;&lt;b&gt;+&lt;/b&gt; Exhaustive search&lt;/font&gt;&lt;div style=&quot;font-size: 54px;&quot;&gt;&lt;font style=&quot;font-size: 54px;&quot;&gt;&lt;b&gt;+&lt;/b&gt; Counterexample generation&lt;br&gt;&lt;b&gt;-&lt;/b&gt; Model completely detached from implementation&lt;/font&gt;&lt;/div&gt;" style="text;html=1;strokeColor=none;fillColor=none;align=left;verticalAlign=middle;whiteSpace=wrap;rounded=0;fontSize=42;rotation=20;" parent="UBPbaVSDeuR6Y1h6aldy-58" vertex="1">
          <mxGeometry x="127" y="92" width="550" height="720" as="geometry" />
        </mxCell>
        <mxCell id="B-UHLOG65UjDEOoMh8zh-100" value="" style="group" vertex="1" connectable="0" parent="B-UHLOG65UjDEOoMh8zh-106">
          <mxGeometry x="866.6126914094275" y="777.4990014666153" width="730" height="590" as="geometry" />
        </mxCell>
        <mxCell id="UBPbaVSDeuR6Y1h6aldy-54" value="" style="ellipse;shape=cloud;whiteSpace=wrap;html=1;strokeWidth=5;fillColor=#785596;opacity=69;fontSize=64;rotation=0;" parent="B-UHLOG65UjDEOoMh8zh-100" vertex="1">
          <mxGeometry width="730" height="590" as="geometry" />
        </mxCell>
        <mxCell id="UBPbaVSDeuR6Y1h6aldy-55" value="&lt;div style=&quot;font-size: 64px;&quot;&gt;Correctness&lt;/div&gt;" style="text;html=1;strokeColor=none;fillColor=none;align=center;verticalAlign=middle;whiteSpace=wrap;rounded=0;" parent="B-UHLOG65UjDEOoMh8zh-100" vertex="1">
          <mxGeometry x="160" y="272.5100000000001" width="460" height="90" as="geometry" />
        </mxCell>
        <mxCell id="B-UHLOG65UjDEOoMh8zh-105" value="" style="group" vertex="1" connectable="0" parent="B-UHLOG65UjDEOoMh8zh-106">
          <mxGeometry x="1086.6137581210724" width="1239.1653279346547" height="895.6490014666152" as="geometry" />
        </mxCell>
        <mxCell id="UBPbaVSDeuR6Y1h6aldy-48" value="&lt;div style=&quot;font-size: 54px;&quot; align=&quot;left&quot;&gt;&lt;font style=&quot;font-size: 54px;&quot;&gt;&lt;b&gt;+&lt;/b&gt; Numerous compile-time checks&lt;br&gt;&lt;font style=&quot;font-size: 54px;&quot;&gt;&lt;b&gt;+&lt;/b&gt; Programming language support&lt;br&gt;&lt;/font&gt;&lt;b&gt;-&lt;/b&gt; &lt;font style=&quot;font-size: 54px;&quot;&gt;Guarantees only as strong as the underlying theory&lt;/font&gt;&lt;/font&gt;&lt;/div&gt;" style="text;html=1;strokeColor=none;fillColor=none;align=left;verticalAlign=middle;whiteSpace=wrap;rounded=0;fontSize=42;rotation=-20;" parent="B-UHLOG65UjDEOoMh8zh-105" vertex="1">
          <mxGeometry x="459" y="95.00950073330762" width="680" height="705.63" as="geometry" />
        </mxCell>
        <mxCell id="UBPbaVSDeuR6Y1h6aldy-52" value="" style="group;rotation=0;" parent="B-UHLOG65UjDEOoMh8zh-105" vertex="1" connectable="0">
          <mxGeometry y="315.0095007333076" width="609.9378665767108" height="536.933504795636" as="geometry" />
        </mxCell>
        <mxCell id="UBPbaVSDeuR6Y1h6aldy-9" value="" style="triangle;whiteSpace=wrap;html=1;rotation=-80;fillColor=#C22A22;strokeWidth=2;perimeterSpacing=0;strokeColor=none;" parent="UBPbaVSDeuR6Y1h6aldy-52" vertex="1">
          <mxGeometry x="80" y="-2" width="450" height="540" as="geometry" />
        </mxCell>
        <mxCell id="UBPbaVSDeuR6Y1h6aldy-11" value="&lt;font style=&quot;font-size: 56px;&quot;&gt;Type&lt;br&gt;&lt;/font&gt;&lt;div style=&quot;font-size: 56px;&quot;&gt;&lt;font style=&quot;font-size: 56px;&quot;&gt;Systems&lt;/font&gt;&lt;/div&gt;" style="text;html=1;strokeColor=none;fillColor=none;align=center;verticalAlign=middle;whiteSpace=wrap;rounded=0;fontSize=42;rotation=10;" parent="UBPbaVSDeuR6Y1h6aldy-52" vertex="1">
          <mxGeometry x="206" y="270" width="180" height="110" as="geometry" />
        </mxCell>
        <mxCell id="B-UHLOG65UjDEOoMh8zh-108" value="" style="endArrow=classic;html=1;rounded=0;strokeWidth=17;exitX=0.1;exitY=0.5;exitDx=0;exitDy=0;exitPerimeter=0;" edge="1" parent="1">
          <mxGeometry width="50" height="50" relative="1" as="geometry">
            <mxPoint x="5421" y="-907" as="sourcePoint" />
            <mxPoint x="5620" y="-907" as="targetPoint" />
          </mxGeometry>
        </mxCell>
        <mxCell id="B-UHLOG65UjDEOoMh8zh-117" value="" style="curved=1;endArrow=none;html=1;rounded=0;endFill=0;strokeWidth=17;" edge="1" parent="1">
          <mxGeometry width="50" height="50" relative="1" as="geometry">
            <mxPoint x="5080" y="-1557" as="sourcePoint" />
            <mxPoint x="5421" y="-907" as="targetPoint" />
            <Array as="points">
              <mxPoint x="5260" y="-1567" />
              <mxPoint x="5260" y="-977" />
              <mxPoint x="5341" y="-917" />
            </Array>
          </mxGeometry>
        </mxCell>
        <mxCell id="B-UHLOG65UjDEOoMh8zh-120" value="" style="curved=1;endArrow=none;html=1;rounded=0;endFill=0;strokeWidth=17;" edge="1" parent="1">
          <mxGeometry width="50" height="50" relative="1" as="geometry">
            <mxPoint x="5070" y="-221" as="sourcePoint" />
            <mxPoint x="5424" y="-907" as="targetPoint" />
            <Array as="points">
              <mxPoint x="5270" y="-261" />
              <mxPoint x="5260" y="-851" />
              <mxPoint x="5344" y="-897" />
            </Array>
          </mxGeometry>
        </mxCell>
        <mxCell id="B-UHLOG65UjDEOoMh8zh-124" value="" style="group" vertex="1" connectable="0" parent="1">
          <mxGeometry x="5550.001643676384" y="-1039.9973381845175" width="678.2767126472309" height="557.1846763690346" as="geometry" />
        </mxCell>
        <mxCell id="B-UHLOG65UjDEOoMh8zh-122" value="" style="ellipse;shape=cloud;whiteSpace=wrap;html=1;strokeWidth=5;fillColor=#8B1233;opacity=69;fontSize=64;rotation=-15;" vertex="1" parent="B-UHLOG65UjDEOoMh8zh-124">
          <mxGeometry x="44.138356323615426" y="69.2173381845173" width="590" height="418.75" as="geometry" />
        </mxCell>
        <mxCell id="B-UHLOG65UjDEOoMh8zh-123" value="Specification" style="text;html=1;strokeColor=none;fillColor=none;align=center;verticalAlign=middle;whiteSpace=wrap;rounded=0;fontSize=64;" vertex="1" parent="B-UHLOG65UjDEOoMh8zh-124">
          <mxGeometry x="109.13835632361543" y="249.2173381845173" width="460" height="90" as="geometry" />
        </mxCell>
        <mxCell id="B-UHLOG65UjDEOoMh8zh-129" value="" style="ellipse;whiteSpace=wrap;html=1;aspect=fixed;fillColor=#8B1233;opacity=69;strokeWidth=4;" vertex="1" parent="B-UHLOG65UjDEOoMh8zh-124">
          <mxGeometry x="612.28" y="50" width="90" height="90" as="geometry" />
        </mxCell>
        <mxCell id="B-UHLOG65UjDEOoMh8zh-127" value="" style="group" vertex="1" connectable="0" parent="1">
          <mxGeometry x="6820" y="-1610" width="1500" height="1720" as="geometry" />
        </mxCell>
        <mxCell id="B-UHLOG65UjDEOoMh8zh-131" value="" style="ellipse;whiteSpace=wrap;html=1;aspect=fixed;fillColor=#8B1233;opacity=69;strokeWidth=4;" vertex="1" parent="B-UHLOG65UjDEOoMh8zh-127">
          <mxGeometry x="-210" y="-220" width="1520" height="1520" as="geometry" />
        </mxCell>
        <mxCell id="B-UHLOG65UjDEOoMh8zh-90" value="" style="ellipse;whiteSpace=wrap;html=1;aspect=fixed;fillColor=#3BA0D3;strokeColor=none;opacity=69;" vertex="1" parent="B-UHLOG65UjDEOoMh8zh-127">
          <mxGeometry y="323.5999999999999" width="690" height="690" as="geometry" />
        </mxCell>
        <mxCell id="B-UHLOG65UjDEOoMh8zh-91" value="&lt;div style=&quot;font-size: 64px;&quot;&gt;Model&lt;br style=&quot;font-size: 64px;&quot;&gt;Checking&lt;/div&gt;" style="text;html=1;strokeColor=none;fillColor=none;align=center;verticalAlign=middle;whiteSpace=wrap;rounded=0;fontSize=64;" vertex="1" parent="B-UHLOG65UjDEOoMh8zh-127">
          <mxGeometry x="80.00124999999935" y="689.9963636363636" width="250" height="140" as="geometry" />
        </mxCell>
        <mxCell id="B-UHLOG65UjDEOoMh8zh-96" value="" style="ellipse;whiteSpace=wrap;html=1;aspect=fixed;fillColor=#608738;strokeColor=none;opacity=69;" vertex="1" parent="B-UHLOG65UjDEOoMh8zh-127">
          <mxGeometry x="370" y="365" width="690" height="690" as="geometry" />
        </mxCell>
        <mxCell id="B-UHLOG65UjDEOoMh8zh-93" value="" style="ellipse;whiteSpace=wrap;html=1;aspect=fixed;fillColor=#C22A22;fillStyle=auto;gradientColor=none;gradientDirection=north;strokeColor=none;opacity=69;" vertex="1" parent="B-UHLOG65UjDEOoMh8zh-127">
          <mxGeometry x="229" width="690" height="690" as="geometry" />
        </mxCell>
        <mxCell id="B-UHLOG65UjDEOoMh8zh-101" value="" style="group;aspect=fixed;fontSize=24;" vertex="1" connectable="0" parent="B-UHLOG65UjDEOoMh8zh-127">
          <mxGeometry x="360" y="529" width="370" height="90" as="geometry" />
        </mxCell>
        <mxCell id="B-UHLOG65UjDEOoMh8zh-103" value="&lt;div style=&quot;font-size: 74px;&quot;&gt;Correctness&lt;/div&gt;" style="text;html=1;strokeColor=none;fillColor=none;align=center;verticalAlign=middle;whiteSpace=wrap;rounded=0;fontSize=74;" vertex="1" parent="B-UHLOG65UjDEOoMh8zh-101">
          <mxGeometry width="370" height="90" as="geometry" />
        </mxCell>
        <mxCell id="B-UHLOG65UjDEOoMh8zh-94" value="Type&lt;br style=&quot;font-size: 64px;&quot;&gt;&lt;div style=&quot;font-size: 64px;&quot;&gt;Systems&lt;/div&gt;" style="text;html=1;strokeColor=none;fillColor=none;align=center;verticalAlign=middle;whiteSpace=wrap;rounded=0;fontSize=64;" vertex="1" parent="B-UHLOG65UjDEOoMh8zh-127">
          <mxGeometry x="489.9974999999995" y="145.00000000000023" width="211.82" height="117.5" as="geometry" />
        </mxCell>
        <mxCell id="B-UHLOG65UjDEOoMh8zh-97" value="Property&lt;br style=&quot;font-size: 64px;&quot;&gt;&lt;div style=&quot;font-size: 64px;&quot;&gt;Testing&lt;/div&gt;" style="text;html=1;strokeColor=none;fillColor=none;align=center;verticalAlign=middle;whiteSpace=wrap;rounded=0;fontSize=64;" vertex="1" parent="B-UHLOG65UjDEOoMh8zh-127">
          <mxGeometry x="750" y="745" width="220" height="133.18" as="geometry" />
        </mxCell>
        <mxCell id="B-UHLOG65UjDEOoMh8zh-130" value="" style="ellipse;whiteSpace=wrap;html=1;aspect=fixed;fillColor=#8B1233;opacity=69;strokeWidth=4;direction=south;" vertex="1" parent="1">
          <mxGeometry x="6310" y="-1160" width="210" height="210" as="geometry" />
        </mxCell>
      </root>
    </mxGraphModel>
  </diagram>
</mxfile>
